<svg width="64" height="64" viewBox="0 0 24 24" fill="none" xmlns="http://www.w3.org/2000/svg">
        <path
            d="M10.9995 6.99788H3.99663C3.4442 6.99768 2.99641 6.5499 2.99622 5.99747V3.99663C2.99641 3.4442 3.4442 2.99641 3.99663 2.99622H10.9995"
            stroke="#581DB6" stroke-width="1.5" stroke-linecap="round" stroke-linejoin="round" />
        <path fill-rule="evenodd" clip-rule="evenodd"
            d="M5.24715 14.501H3.74653C3.3322 14.5009 2.99636 14.165 2.99622 13.7507V12.2501C2.99636 11.8357 3.3322 11.4999 3.74653 11.4998H5.24715C5.66148 11.4999 5.99732 11.8357 5.99747 12.2501V13.7507C5.99732 14.165 5.66148 14.5009 5.24715 14.501Z"
            stroke="#581DB6" stroke-width="1.5" stroke-linecap="round" stroke-linejoin="round" />
        <path d="M9.22083 13.0005H21.0037" stroke="#581DB6" stroke-width="1.5" stroke-linecap="round"
            stroke-linejoin="round" />
        <path fill-rule="evenodd" clip-rule="evenodd"
            d="M5.24715 21.0037H3.74653C3.3322 21.0035 2.99636 20.6677 2.99622 20.2534V18.7528C2.99636 18.3384 3.3322 18.0026 3.74653 18.0024H5.24715C5.66148 18.0026 5.99732 18.3384 5.99747 18.7528V20.2534C5.99732 20.6677 5.66148 21.0035 5.24715 21.0037Z"
            stroke="#581DB6" stroke-width="1.5" stroke-linecap="round" stroke-linejoin="round" />
        <path d="M9.22083 19.5031H21.0037" stroke="#581DB6" stroke-width="1.5" stroke-linecap="round"
            stroke-linejoin="round" />
        <circle cx="17.0021" cy="4.9971" r="3.00125" stroke="#581DB6" stroke-width="1.5" stroke-linecap="round"
            stroke-linejoin="round" />
        <path d="M21.0038 8.99876L19.1238 7.11877" stroke="#581DB6" stroke-width="1.5" stroke-linecap="round"
            stroke-linejoin="round" />
    </svg>