<svg width="85" height="28" viewBox="0 0 85 28" fill="none" xmlns="http://www.w3.org/2000/svg">
<g id="Group 4">
<path id="Vector" d="M56.3808 12.5558H35.587C35.1743 12.5558 34.8131 12.1946 34.8647 11.7818C35.1227 8.99557 36.7738 -0.0339579 46.1129 0.0692367C55.452 0.172431 56.8967 9.04716 57.1031 11.7818C57.1547 12.1946 56.7935 12.5558 56.3808 12.5558Z" fill="white"/>
<path id="Vector_2" d="M16.8571 23.5455L53.2332 23.8551C53.5943 23.8551 53.9039 24.1646 53.9039 24.5258V26.9509C53.9039 27.3121 53.5943 27.6217 53.2332 27.6217H8.29192C8.18872 27.6217 8.08552 27.6217 7.98233 27.6217C6.89879 27.6217 -0.58282 27.5185 0.0363476 19.7273C0.0363476 19.7273 0.758713 13.0196 8.85949 12.6584C9.27227 12.6584 9.58185 13.0196 9.53025 13.3808C9.37546 14.6191 9.22066 17.0958 10.5622 19.3661C12.4197 22.5135 14.948 23.4939 16.8571 23.5455Z" fill="white"/>
<path id="Union" fill-rule="evenodd" clip-rule="evenodd" d="M76.4523 11.3179L76.7103 11.5759C79.3417 14.5685 77.5358 19.3155 73.5628 19.7798C73.3049 19.8314 72.9953 19.8314 72.6857 19.8314H46.9385V19.8315H19.3855C19.076 19.8315 18.7664 19.8315 18.5084 19.7799C14.5354 19.3155 12.7295 14.5686 15.3094 11.5759L15.5673 11.3179C17.0121 9.82163 19.0244 9.04767 21.0883 9.04767H29.705C30.0662 9.04767 30.3242 9.30565 30.3242 9.66683V11.4727C30.3242 11.8339 30.0146 12.1435 29.6534 12.1435H28.6215C28.2603 12.1435 27.8991 12.1435 27.5379 12.0919C26.4544 12.0403 23.6165 11.9887 23.6165 13.8462C23.6165 15.1877 25.1644 15.8585 26.3512 16.1681C27.0219 16.3229 27.7443 16.4261 28.4667 16.4261H45.1327V16.426H63.6046C64.3269 16.426 65.0493 16.3228 65.7201 16.168C66.9068 15.8584 68.4547 15.1877 68.4547 13.8462C68.4547 11.9886 65.6169 12.0402 64.5333 12.0918C64.1721 12.1434 63.8109 12.1434 63.4498 12.1434H62.3662C62.0051 12.1434 61.6955 11.8339 61.6955 11.4727V9.66677C61.6955 9.30559 61.9535 9.04761 62.3146 9.04761H70.9314C72.9953 9.04761 75.0076 9.82156 76.4523 11.3179Z" fill="white"/>
<path id="Vector_3" d="M15.3094 5.95144C15.3094 7.18977 14.2774 8.22172 13.0391 8.22172C11.8007 8.22172 10.7688 7.18977 10.7688 5.95144C10.7688 4.7131 11.8007 3.68115 13.0391 3.68115C14.329 3.73275 15.3094 4.7131 15.3094 5.95144Z" fill="white"/>
<path id="Vector_4" d="M84.6045 9.92409C84.6045 11.1624 83.5726 12.1944 82.3342 12.1944C81.0959 12.1944 80.064 11.1624 80.064 9.92409C80.064 8.68576 81.0959 7.65381 82.3342 7.65381C83.6242 7.65381 84.6045 8.68576 84.6045 9.92409Z" fill="white"/>
<path id="Vector_5" d="M61.4374 25.6614C61.4374 26.8997 60.4055 27.9317 59.1671 27.9317C57.9288 27.9317 56.8969 26.8997 56.8969 25.6614C56.8969 24.4231 57.9288 23.3911 59.1671 23.3911C60.4571 23.3911 61.4374 24.4231 61.4374 25.6614Z" fill="white"/>
</g>
</svg>
