<svg width="24" height="24" viewBox="0 0 24 24" fill="none" xmlns="http://www.w3.org/2000/svg">
<path fill-rule="evenodd" clip-rule="evenodd" d="M12.8003 2.99634C13.2224 2.99634 13.599 3.26137 13.7417 3.65861L14.2499 5.0742C14.3306 5.29681 14.4872 5.48385 14.6921 5.60242L16.1997 6.47279C16.4045 6.59091 16.6444 6.63273 16.877 6.59083L18.3576 6.32372C18.7734 6.24812 19.1918 6.44192 19.4031 6.80793L20.2034 8.1885C20.4152 8.55351 20.3752 9.01217 20.1034 9.33498L19.132 10.4835C18.979 10.664 18.895 10.893 18.8949 11.1297V12.8705C18.895 13.1071 18.979 13.3361 19.132 13.5167L20.1034 14.6652C20.3752 14.988 20.4152 15.4467 20.2034 15.8117L19.4031 17.1923C19.192 17.5579 18.7741 17.7516 18.3586 17.6765L16.878 17.4093C16.6454 17.3674 16.4055 17.4093 16.2007 17.5274L14.6931 18.3978C14.4882 18.5163 14.3316 18.7034 14.2509 18.926L13.7427 20.3416C13.5999 20.7392 13.2228 21.0042 12.8003 21.0038H11.1997C10.7776 21.0038 10.4009 20.7388 10.2583 20.3416L9.75005 18.926C9.66941 18.7037 9.51326 18.5167 9.30887 18.3978L7.80024 17.5274C7.59551 17.4093 7.35557 17.3674 7.12296 17.4093L5.64234 17.6765C5.22657 17.7521 4.80814 17.5583 4.5969 17.1923L3.79657 15.8117C3.58477 15.4467 3.62479 14.988 3.89661 14.6652L4.86802 13.5167C5.02101 13.3361 5.10502 13.1071 5.10512 12.8705V11.1297C5.10502 10.893 5.02101 10.664 4.86802 10.4835L3.90662 9.33498C3.6348 9.01217 3.59477 8.55351 3.80657 8.1885L4.60691 6.80793C4.81801 6.44232 5.23591 6.24858 5.65134 6.32372L7.13196 6.59083C7.36458 6.63273 7.60451 6.59091 7.80924 6.47279L9.31787 5.60242C9.52227 5.48347 9.67841 5.29652 9.75905 5.0742L10.2673 3.65861C10.4088 3.26446 10.7809 3.00017 11.1997 2.99634H12.8003Z" stroke="#581DB6" stroke-width="1.5" stroke-linecap="round" stroke-linejoin="round"/>
<circle cx="12" cy="12.0002" r="2.75115" stroke="#581DB6" stroke-width="1.5" stroke-linecap="round" stroke-linejoin="round"/>
</svg>
