<svg width="24" height="24" viewBox="0 0 24 24" fill="none" xmlns="http://www.w3.org/2000/svg">
<path d="M20.0033 17.0022V19.003C20.0033 20.1085 19.1079 21.0038 18.0025 21.0038H5.99748C4.89202 21.0038 3.99664 20.1085 3.99664 19.003V4.99717C3.99664 3.89171 4.89202 2.99634 5.99748 2.99634H18.0025C19.1079 2.99634 20.0033 3.89171 20.0033 4.99717V6.998" stroke="#581DB6" stroke-width="1.5" stroke-linecap="round" stroke-linejoin="round"/>
<path d="M8.99874 10.9998V13.0006" stroke="#581DB6" stroke-width="1.5" stroke-linecap="round" stroke-linejoin="round"/>
<path d="M3.99664 19C3.99664 20.4876 5.5623 21.455 6.89185 20.7897L10.8935 18.7889C11.5718 18.4488 12 17.7565 12 16.9982V2.99634" stroke="#581DB6" stroke-width="1.5" stroke-linecap="round" stroke-linejoin="round"/>
<path d="M21.0037 12.0002H16.0016" stroke="#581DB6" stroke-width="1.5" stroke-linecap="round" stroke-linejoin="round"/>
<path d="M18.0025 9.99927L16.0016 12.0001L18.0025 14.0009" stroke="#581DB6" stroke-width="1.5" stroke-linecap="round" stroke-linejoin="round"/>
</svg>
