<svg width="138" height="52" viewBox="0 0 138 52" fill="none" xmlns="http://www.w3.org/2000/svg">
<g id="Group 2">
<path id="Vector" d="M4.73714 47.582H12.9398C14.9184 47.582 16.3611 46.3866 16.3611 44.2432C16.3611 42.0998 14.9184 40.9044 12.9398 40.9044H4.73714V47.582ZM4.73714 37.1122H12.033C13.7642 37.1122 15.1657 36.1229 15.1657 34.0207C15.1657 32.001 13.7642 31.0117 12.033 31.0117H4.73714V37.1122ZM0.573975 51.5803V27.0134H12.0742C16.4023 27.0134 19.535 29.6927 19.535 33.691C19.535 35.8344 18.9167 37.3595 16.8969 38.7198C19.0815 39.6678 20.7303 41.77 20.7303 44.6142C20.7303 49.1483 17.474 51.5803 12.9811 51.5803H0.573975Z" fill="white"/>
<path id="Vector_2" d="M24.8111 27.0134H29.0155V47.4995H40.7218V51.5803H24.8111V27.0134Z" fill="white"/>
<path id="Vector_3" d="M60.9194 40.7806V38.1426C60.9194 33.4436 58.5699 30.6819 54.5304 30.6819C50.4497 30.6819 48.1002 33.4848 48.1002 38.1426V40.7806H60.9194ZM43.8958 38.1426C43.8958 30.9704 47.8116 26.6423 54.5304 26.6423C61.208 26.6423 65.1238 30.9704 65.1238 38.1426V51.5802H60.9606V44.8614H48.1002V51.5802H43.937V38.1426H43.8958Z" fill="white"/>
<path id="Vector_4" d="M88.5365 47.4997V51.5392H68.7924L68.8336 51.127C69.2458 46.3456 74.1509 40.987 77.2836 37.607C79.798 34.8865 81.5292 32.8668 82.6421 30.8882C81.6941 30.9707 80.9521 30.9707 80.4575 30.9707H70.1526V26.9312H88.4953L88.4541 27.6319C88.248 32.0836 83.9612 37.0712 80.6636 40.4099C77.6958 43.3778 75.8409 45.6036 74.6868 47.7058L74.728 47.6646C75.5112 47.4997 76.6241 47.4173 77.366 47.4173H88.5365V47.4997Z" fill="white"/>
<path id="Vector_5" d="M109.27 40.7806V38.1426C109.27 33.4436 106.92 30.6819 102.881 30.6819C98.8001 30.6819 96.4506 33.4848 96.4506 38.1426V40.7806H109.27ZM92.2462 38.1426C92.2462 30.9704 96.1621 26.6423 102.881 26.6423C109.558 26.6423 113.474 30.9704 113.474 38.1426V51.5802H109.27V44.8614H96.4094V51.5802H92.2462V38.1426Z" fill="white"/>
<path id="Vector_6" d="M122.378 30.9705V40.3273H128.808C131.652 40.3273 133.466 38.6785 133.466 35.5871C133.466 32.6192 131.405 30.9705 128.932 30.9705H122.378ZM133.425 44.779C134.538 46.7163 135.774 47.7468 138 48.159V51.7863C134.084 51.6214 132.229 50.4261 130.086 46.9636L128.355 44.1607H122.378V51.539H118.215V26.9722H128.932C133.796 26.9722 137.876 29.94 137.876 35.5871C137.876 39.4617 135.238 42.0997 132.518 43.1714L133.425 44.779Z" fill="white"/>
<g id="Group 13">
<path id="Vector_7" d="M81.2819 9.98974H64.6704C64.3407 9.98974 64.0521 9.70121 64.0934 9.37145C64.2995 7.1456 65.6185 -0.0678222 73.0792 0.0146169C80.54 0.097056 81.6941 7.18682 81.859 9.37145C81.9002 9.70121 81.6117 9.98974 81.2819 9.98974Z" fill="white"/>
<path id="Vector_8" d="M49.7077 18.7693L78.7675 19.0167C79.056 19.0167 79.3033 19.264 79.3033 19.5525V21.4898C79.3033 21.7784 79.056 22.0257 78.7675 22.0257H42.8653C42.7828 22.0257 42.7004 22.0257 42.6179 22.0257C41.7523 22.0257 35.7755 21.9432 36.2701 15.7191C36.2701 15.7191 36.8472 10.3606 43.3187 10.072C43.6484 10.072 43.8957 10.3606 43.8545 10.6491C43.7309 11.6384 43.6072 13.6169 44.6789 15.4306C46.1628 17.945 48.1826 18.7281 49.7077 18.7693Z" fill="white"/>
<path id="Union" fill-rule="evenodd" clip-rule="evenodd" d="M48.6773 9.00067L48.4712 9.20677C46.4102 11.5975 47.8529 15.3897 51.0268 15.7607C51.2329 15.8019 51.4802 15.8019 51.7275 15.8019H72.296V15.802H94.3072C94.5545 15.802 94.8019 15.8019 95.008 15.7607C98.1819 15.3898 99.6245 11.5976 97.5224 9.20682L97.3162 9.00073C96.1621 7.80536 94.5545 7.18707 92.9058 7.18707H86.0221C85.7336 7.18707 85.5275 7.39316 85.5275 7.6817V9.12438C85.5275 9.41292 85.7748 9.66024 86.0633 9.66024H86.9289C87.2175 9.66024 87.506 9.66024 87.7945 9.61902C88.6601 9.5778 90.9272 9.53658 90.9272 11.0205C90.9272 12.0922 89.6906 12.628 88.7426 12.8754C88.2067 12.999 87.6297 13.0815 87.0526 13.0815H73.7387V13.0814H58.9821C58.4051 13.0814 57.828 12.999 57.2921 12.8753C56.3441 12.628 55.1075 12.0921 55.1075 11.0204C55.1075 9.53652 57.3746 9.57774 58.2402 9.61896C58.5287 9.66018 58.8173 9.66018 59.1058 9.66018H59.9302C60.2187 9.66018 60.466 9.41286 60.466 9.12432V7.68165C60.466 7.39311 60.2599 7.18701 59.9714 7.18701H53.0877C51.439 7.18701 49.8314 7.8053 48.6773 9.00067Z" fill="white"/>
<path id="Vector_9" d="M48.4711 4.71357C48.4711 5.70284 47.6467 6.52722 46.6574 6.52722C45.6681 6.52722 44.8438 5.70284 44.8438 4.71357C44.8438 3.7243 45.6681 2.8999 46.6574 2.8999C47.6879 2.94112 48.4711 3.7243 48.4711 4.71357Z" fill="white"/>
<path id="Vector_10" d="M103.829 7.88739C103.829 8.87666 103.005 9.70106 102.015 9.70106C101.026 9.70106 100.202 8.87666 100.202 7.88739C100.202 6.89813 101.026 6.07373 102.015 6.07373C103.046 6.07373 103.829 6.89813 103.829 7.88739Z" fill="white"/>
<path id="Vector_11" d="M85.3214 20.4594C85.3214 21.4487 84.497 22.2731 83.5077 22.2731C82.5185 22.2731 81.6941 21.4487 81.6941 20.4594C81.6941 19.4701 82.5185 18.6458 83.5077 18.6458C84.5382 18.6458 85.3214 19.4701 85.3214 20.4594Z" fill="white"/>
</g>
</g>
</svg>
