<svg width="24" height="24" viewBox="0 0 24 24" fill="none" xmlns="http://www.w3.org/2000/svg">
<path d="M7.99835 13.0005H10.9996" stroke="white" stroke-width="1.5" stroke-linecap="round" stroke-linejoin="round"/>
<path fill-rule="evenodd" clip-rule="evenodd" d="M3.99665 8.99876V19.9993C3.99518 20.3521 4.17997 20.6794 4.48274 20.8604C4.78551 21.0413 5.16131 21.0491 5.47127 20.8807C7.10095 19.9913 9.49894 18.6838 9.49894 18.6838C9.49894 18.6838 11.897 19.9923 13.5266 20.8807C13.8366 21.0491 14.2124 21.0413 14.5152 20.8604C14.8179 20.6794 15.0027 20.3521 15.0013 19.9993V8.99876C15.0014 8.46806 14.7906 7.95905 14.4154 7.58379C14.0401 7.20853 13.5311 6.99778 13.0004 6.99792H5.99749C4.89248 6.99792 3.99665 7.89375 3.99665 8.99876Z" stroke="white" stroke-width="1.5" stroke-linecap="round" stroke-linejoin="round"/>
<path d="M15.0013 15.0012L18.5237 16.923C18.8337 17.0921 19.2099 17.0853 19.5136 16.905C19.8172 16.7248 20.0033 16.3978 20.0033 16.0447V4.99705C20.0035 4.46635 19.7927 3.95735 19.4175 3.58209C19.0422 3.20682 18.5332 2.99607 18.0025 2.99622H11.4998C10.9691 2.99607 10.4601 3.20682 10.0848 3.58209C9.70957 3.95735 9.49882 4.46635 9.49896 4.99705V6.99788" stroke="white" stroke-width="1.5" stroke-linecap="round" stroke-linejoin="round"/>
</svg>
