<svg width="46" height="9" viewBox="0 0 46 9" fill="none" xmlns="http://www.w3.org/2000/svg">
<path fill-rule="evenodd" clip-rule="evenodd" d="M44.2756 2.22222L44.4568 2.40566C46.3045 4.53362 45.0365 7.909 42.2467 8.2392C42.0656 8.27589 41.8482 8.27589 41.6308 8.27589H23.5519V8.27595H4.20497C3.98758 8.27595 3.77021 8.27595 3.58906 8.23926C0.799325 7.90906 -0.468739 4.53368 1.34278 2.40572L1.52393 2.22228C2.53837 1.1583 3.95136 0.607971 5.40057 0.607971H11.451C11.7046 0.607971 11.8858 0.791414 11.8858 1.04824V2.33234C11.8858 2.58916 11.6684 2.8093 11.4148 2.8093H10.6902C10.4366 2.8093 10.183 2.8093 9.92936 2.77261C9.16852 2.73592 7.17585 2.69923 7.17585 4.02003C7.17585 4.97395 8.26276 5.4509 9.09606 5.67104C9.56705 5.7811 10.0743 5.85448 10.5815 5.85448H22.2838V5.85442H35.2543C35.7615 5.85442 36.2687 5.78104 36.7397 5.67098C37.573 5.45084 38.6599 4.97389 38.6599 4.01997C38.6599 2.69917 36.6673 2.73586 35.9064 2.77255C35.6528 2.80924 35.3992 2.80924 35.1456 2.80924H34.3848C34.1311 2.80924 33.9138 2.5891 33.9138 2.33228V1.04818C33.9138 0.791354 34.0949 0.60791 34.3485 0.60791H40.399C41.8482 0.60791 43.2612 1.15824 44.2756 2.22222Z" fill="white"/>
</svg>
